<svg id="Filled_Line" viewBox="0 0 64 64" xmlns="http://www.w3.org/2000/svg"><g><path d="m50 24v28l10 8v-56h-56v56l10-8v-28z" fill="#b8c3d5"/><path d="m4 4 10 20h36l10-20z" fill="#d3dce5"/><path d="m16.47 20-6-12h43.06l-6 12z" fill="#b8c3d5"/><path d="m14 24h36v28h-36z" fill="#9dabc4"/></g><g fill="#1a2c3d"><path d="m60 3h-56c-.55 0-1 .45-1 1v56c0 .55.45 1 1 1s1-.45 1-1v-51.76l8 16v27.76c0 .55.45 1 1 1s1-.45 1-1v-27h34v27c0 .55.45 1 1 1s1-.45 1-1v-27.76l8-16v51.76c0 .55.45 1 1 1s1-.45 1-1v-56c0-.55-.45-1-1-1zm-10.62 20h-34.76l-9-18h52.76z"/><path d="m54.38 7.47c-.18-.29-.5-.47-.85-.47h-43.06c-.35 0-.67.18-.85.47s-.2.66-.04.97l6 12c.17.34.52.55.89.55h31.06c.38 0 .72-.21.89-.55l6-12c.16-.31.14-.68-.04-.97zm-23.38 1.53v4h-16.91l-2-4zm-15.91 6h15.91v4h-13.91zm31.82 4h-13.91v-4h15.91zm3-6h-16.91v-4h18.91z"/></g></svg>